<svg viewBox="0 0 64 64" xmlns="http://www.w3.org/2000/svg" xmlns:xlink="http://www.w3.org/1999/xlink"><path d="m32 2c-13.8 0-25 11.2-25 25s11.2 25 25 25 25-11.2 25-25-11.2-25-25-25m0 47c-12.1 0-22-9.8-22-22s9.9-22 22-22 22 9.9 22 22-9.8 22-22 22" fill="#d0d0d0"/><path id="a" d="m8 26h48v2h-48z" fill="#d0d0d0"/><path id="b" d="m31 3h2v48h-2z" fill="#d0d0d0"/><use transform="matrix(.70709444 -.70711912 .70711912 .70709444 -9.719238 30.536262)" xlink:href="#b"/><use transform="matrix(.70709444 -.70711912 .70711912 .70709444 -9.719238 30.536262)" xlink:href="#a"/><circle cx="32" cy="27" fill="#3e4347" r="8.2"/><circle cx="32" cy="27" fill="#94989b" r="5.5"/><path d="m34.9 2.8h-2.1c0-.4-.4-.8-.8-.8s-.8.4-.8.8h-2.1c-1.5 0-2.6 1.2-2.6 2.6v5.8c0 1.5 1.2 2.6 2.6 2.6h5.8c1.5 0 2.6-1.2 2.6-2.6v-5.8c0-1.4-1.1-2.6-2.6-2.6m1.1 5.5h-8v-2.9c0-.6.5-1.1 1.1-1.1h5.8c.6 0 1.1.5 1.1 1.1z" fill="#ed4c5c"/><path d="m26.5 9.9h11.1v1.6h-11.1z" fill="#3e4347"/><path d="m34.9 50.9h-2.1c0-.4-.3-.8-.8-.8s-.8.3-.8.8h-2.1c-1.5 0-2.6 1.2-2.6 2.6v5.8c0 1.5 1.2 2.6 2.6 2.6h5.8c1.5 0 2.6-1.2 2.6-2.6v-5.8c0-1.4-1.1-2.6-2.6-2.6m1.1 5.6h-8v-2.9c0-.6.5-1.1 1.1-1.1h5.8c.6 0 1.1.5 1.1 1.1z" fill="#ed4c5c"/><path d="m26.5 58h11.1v1.6h-11.1z" fill="#3e4347"/><path d="m10.4 26.9h-2.1c0-.4-.3-.8-.8-.8s-.8.4-.8.8h-2.1c-1.4 0-2.6 1.1-2.6 2.6v5.8c0 1.5 1.2 2.6 2.6 2.6h5.8c1.5 0 2.6-1.2 2.6-2.6v-5.8c.1-1.5-1.1-2.6-2.6-2.6m1.1 5.5h-8v-2.9c0-.6.5-1.1 1.1-1.1h5.8c.6 0 1.1.5 1.1 1.1z" fill="#f2b200"/><path d="m2 33.9h11.1v1.6h-11.1z" fill="#3e4347"/><path d="m59.4 26.9h-2.1c0-.4-.3-.8-.8-.8s-.8.4-.8.8h-2.1c-1.5 0-2.6 1.2-2.6 2.6v5.8c0 1.5 1.2 2.6 2.6 2.6h5.8c1.5 0 2.6-1.2 2.6-2.6v-5.8c0-1.5-1.2-2.6-2.6-2.6m1 5.5h-8v-2.9c0-.6.5-1.1 1.1-1.1h5.8c.6 0 1.1.5 1.1 1.1z" fill="#42ade2"/><path d="m50.9 33.9h11.1v1.6h-11.1z" fill="#3e4347"/><path d="m17.9 9.8h-2.1c0-.4-.3-.8-.8-.8-.4 0-.8.4-.8.8h-2.1c-1.5 0-2.6 1.2-2.6 2.6v5.8c0 1.5 1.2 2.6 2.6 2.6h5.8c1.5 0 2.6-1.2 2.6-2.6v-5.8c0-1.4-1.2-2.6-2.6-2.6m1.1 5.6h-8v-2.9c0-.6.5-1.1 1.1-1.1h5.8c.6 0 1.1.5 1.1 1.1z" fill="#42ade2"/><path d="m9.4 16.9h11.1v1.6h-11.1z" fill="#3e4347"/><path d="m51.9 43.9h-2.1c0-.4-.3-.8-.8-.8-.4 0-.8.3-.8.8h-2.1c-1.5 0-2.6 1.2-2.6 2.6v5.8c0 1.5 1.2 2.6 2.6 2.6h5.8c1.5 0 2.6-1.2 2.6-2.6v-5.8c.1-1.4-1.1-2.6-2.6-2.6m1.1 5.5h-8v-2.9c0-.6.5-1.1 1.1-1.1h5.8c.6 0 1.1.5 1.1 1.1z" fill="#f2b200"/><path d="m43.5 51h11.1v1.6h-11.1z" fill="#3e4347"/><path d="m17.6 44.1h-2.1c0-.4-.3-.8-.8-.8-.4 0-.8.3-.8.8h-2.1c-1.5 0-2.6 1.2-2.6 2.6v5.8c0 1.5 1.2 2.6 2.6 2.6h5.8c1.5 0 2.6-1.2 2.6-2.6v-5.8c.1-1.4-1.1-2.6-2.6-2.6m1.1 5.6h-8v-2.9c0-.6.5-1.1 1.1-1.1h5.8c.6 0 1.1.5 1.1 1.1z" fill="#83bf4f"/><path d="m9.2 51.2h11.1v1.6h-11.1z" fill="#3e4347"/><path d="m52.2 9.6h-2.1c0-.4-.3-.8-.8-.8s-.8.3-.8.8h-2.1c-1.5 0-2.6 1.2-2.6 2.6v5.8c0 1.5 1.2 2.6 2.7 2.6h5.8c1.5 0 2.6-1.2 2.6-2.6v-5.8c-.1-1.4-1.2-2.6-2.7-2.6m1.1 5.5h-8v-2.9c0-.6.5-1.1 1.1-1.1h5.8c.6 0 1.1.5 1.1 1.1z" fill="#83bf4f"/><path d="m43.7 16.7h11.1v1.6h-11.1z" fill="#3e4347"/><g fill="#ed4c5c"><circle cx="32" cy="27" r="2.8"/><path d="m33 26.4-1.1.6-.9-.5-20.4 37.5h2.6l18.8-34.8 18.8 34.8h2.6z"/></g></svg>