<?xml version="1.0" standalone="no"?>
<!DOCTYPE svg PUBLIC "-//W3C//DTD SVG 20010904//EN"
 "http://www.w3.org/TR/2001/REC-SVG-20010904/DTD/svg10.dtd">
<svg version="1.0" xmlns="http://www.w3.org/2000/svg"
 width="2048.000000pt" height="1152.000000pt" viewBox="0 0 2048.000000 1152.000000"
 preserveAspectRatio="xMidYMid meet">

<g transform="translate(0.000000,1152.000000) scale(0.100000,-0.100000)"
fill="#000000" stroke="none">
<path d="M15415 8309 c-141 -7 -288 -32 -407 -69 -92 -28 -203 -104 -274 -186
-32 -38 -102 -110 -154 -161 l-95 -92 -5 167 c-5 154 -7 169 -28 200 -25 34
-47 49 -93 62 -58 17 -890 -88 -1482 -185 -157 -26 -190 -40 -217 -91 -8 -15
-39 -52 -68 -83 -28 -31 -55 -66 -58 -78 -3 -12 -17 -24 -32 -28 -15 -3 -41
-20 -58 -36 l-31 -30 -39 32 c-60 47 -125 77 -222 100 -76 19 -106 21 -232 16
-80 -4 -215 -17 -300 -31 -259 -42 -898 -174 -924 -191 -13 -9 -35 -33 -49
-54 -28 -42 -97 -115 -165 -174 l-44 -37 -28 20 c-47 34 -117 59 -223 81 -191
39 -485 13 -805 -72 -208 -55 -329 -112 -492 -232 -53 -40 -127 -94 -164 -120
-70 -51 -148 -137 -187 -206 l-22 -41 -35 53 c-75 113 -137 156 -278 194 -88
22 -119 26 -269 26 -189 0 -310 -10 -620 -53 -115 -16 -302 -41 -415 -54 -246
-31 -307 -43 -339 -67 -13 -11 -38 -19 -55 -19 -109 -1 -171 -51 -182 -148
l-6 -60 -56 39 c-95 67 -255 114 -425 126 -159 10 -1164 -16 -1212 -32 -22 -7
-68 -15 -102 -18 -95 -8 -142 -44 -167 -129 -5 -15 -14 -12 -68 26 -116 80
-208 117 -413 166 -224 54 -388 73 -620 74 -224 1 -309 -12 -430 -64 -28 -12
-76 -30 -108 -41 -31 -11 -79 -33 -106 -49 -26 -17 -51 -30 -55 -30 -3 0 -6
46 -6 103 0 112 -14 155 -61 190 -15 10 -99 36 -195 58 -93 21 -261 64 -374
95 -326 90 -452 122 -566 139 -99 16 -113 16 -196 1 -115 -21 -178 -54 -252
-130 -33 -33 -86 -79 -117 -103 -66 -48 -184 -206 -231 -311 -36 -79 -72 -237
-90 -387 -20 -178 -16 -858 6 -1016 35 -258 99 -447 191 -571 73 -99 210 -184
387 -242 120 -39 354 -89 518 -111 203 -26 581 -57 622 -50 40 7 108 62 108
88 0 7 15 21 33 31 17 11 42 28 54 39 l22 20 54 -49 c111 -100 233 -153 457
-198 174 -35 301 -46 524 -46 207 0 311 10 444 41 148 36 227 76 319 165 27
27 79 75 115 106 l66 57 4 -117 c4 -139 21 -183 84 -216 37 -20 55 -21 359
-21 360 0 374 2 417 74 38 62 60 67 83 17 39 -81 70 -86 462 -75 380 10 434
17 481 62 17 17 32 37 32 44 0 7 13 19 29 27 28 15 29 15 41 -15 7 -17 29 -42
48 -57 35 -27 38 -27 171 -25 175 3 820 40 931 54 108 13 209 34 318 65 176
51 240 91 431 272 l138 130 29 -61 c35 -75 127 -171 204 -214 68 -39 204 -79
335 -99 141 -22 484 -14 650 15 250 44 394 95 519 185 34 24 123 104 199 178
l137 135 0 -117 c0 -65 3 -132 6 -150 10 -45 64 -97 111 -104 40 -7 889 57
1003 75 188 30 367 94 474 172 80 58 312 283 363 353 l48 64 5 -212 c8 -326 0
-322 450 -294 140 8 399 22 575 31 671 32 659 32 690 48 35 19 251 226 257
246 3 9 26 -3 73 -39 84 -63 148 -93 271 -126 229 -61 449 -79 849 -69 154 3
296 10 315 15 21 6 55 29 84 59 l49 50 21 -42 c36 -70 58 -80 203 -88 71 -4
283 -13 473 -19 190 -6 453 -18 585 -26 367 -23 403 -23 447 3 27 16 38 18 41
9 14 -35 80 -48 381 -77 165 -16 360 -36 433 -44 325 -37 585 1 743 109 106
72 318 287 388 394 102 154 146 329 146 582 0 133 -4 171 -26 266 -15 62 -42
146 -61 188 -38 80 -121 208 -162 246 l-24 23 67 67 c88 89 122 133 138 178
16 44 19 681 4 747 -15 65 -55 93 -275 184 -352 145 -602 218 -811 236 -89 7
-226 -11 -318 -44 -75 -26 -165 -90 -216 -153 -55 -67 -172 -188 -182 -188 -5
0 -8 93 -8 206 0 231 -8 284 -53 331 -36 39 -77 49 -362 92 -356 53 -700 89
-1081 111 -186 11 -242 7 -285 -23 -20 -15 -24 -15 -48 2 -14 10 -44 24 -66
30 -45 12 -560 13 -790 0z m765 -529 l0 -390 -270 0 -270 0 0 97 0 96 -127 -6
c-233 -12 -268 -53 -293 -342 -13 -154 -13 -878 0 -970 15 -104 38 -164 82
-211 58 -63 157 -92 273 -79 l64 7 3 126 3 127 268 3 267 2 0 -476 0 -476
-422 5 c-315 4 -444 9 -504 20 -349 64 -467 159 -548 440 -59 202 -76 373 -83
827 -6 388 6 708 32 887 52 348 185 559 399 633 158 54 301 66 799 68 l327 2
0 -390z m670 354 c326 -24 566 -52 903 -105 l197 -32 0 -289 0 -290 -27 6
c-85 18 -771 106 -825 106 -5 0 -8 -96 -8 -214 l0 -215 43 -5 c23 -3 92 -10
152 -16 126 -12 504 -57 553 -66 l32 -6 0 -302 c0 -167 -2 -305 -4 -307 -3 -3
-76 3 -163 13 -221 25 -597 57 -605 51 -5 -2 -8 -120 -8 -262 l0 -258 98 -7
c53 -3 134 -9 180 -13 l82 -6 0 47 0 48 78 -7 c42 -4 160 -15 262 -26 102 -10
193 -19 203 -19 16 0 17 -25 17 -374 l0 -375 -32 5 c-93 12 -830 48 -1240 60
l-228 7 -2 1141 -3 1141 -50 5 -50 5 -3 294 -2 293 127 -6 c71 -4 216 -14 323
-22z m-2522 -336 l-3 -293 -175 -17 c-221 -23 -606 -67 -642 -74 l-28 -6 0
-209 c0 -115 2 -209 5 -209 3 0 83 9 178 20 94 10 244 26 332 35 88 8 181 18
208 21 l47 6 0 -314 0 -315 -147 -11 c-82 -7 -255 -22 -385 -34 l-238 -22 0
-253 0 -253 48 1 c26 1 106 6 177 13 l130 11 3 46 3 46 162 11 c89 7 215 15
280 19 l117 6 0 -381 0 -381 -42 -5 c-24 -3 -169 -10 -323 -16 -278 -11 -890
-44 -1057 -56 l-88 -7 0 1076 0 1077 -32 -6 c-18 -3 -41 -7 -50 -9 -17 -3 -18
16 -18 280 0 262 1 284 18 289 51 15 797 122 1122 160 118 14 249 30 290 35
41 4 83 9 93 10 16 1 17 -17 15 -291z m4672 -28 c125 -25 337 -98 575 -198
l190 -79 3 -337 c2 -269 0 -337 -10 -332 -21 8 -378 123 -455 146 l-73 22 0
67 0 68 -77 36 c-94 44 -173 56 -225 34 -48 -20 -68 -53 -75 -121 -5 -47 -2
-64 21 -110 36 -74 88 -115 301 -240 358 -209 480 -319 572 -514 89 -190 107
-455 47 -702 -49 -201 -165 -320 -359 -370 -128 -33 -262 -35 -505 -10 -118
12 -321 32 -450 44 l-235 22 -3 397 -2 398 32 -5 c18 -3 139 -22 268 -41 129
-20 241 -38 248 -40 8 -3 12 -27 12 -75 0 -38 1 -70 3 -70 1 0 54 -9 117 -20
142 -24 195 -25 240 -2 46 23 70 72 70 145 0 134 -59 188 -413 378 -178 95
-257 151 -335 234 -165 177 -242 452 -213 758 18 197 60 317 141 410 49 55
157 112 240 126 75 14 234 5 350 -19z m-6878 -81 c153 -33 256 -139 308 -319
30 -103 39 -380 16 -488 -20 -95 -61 -185 -115 -251 l-44 -54 29 -20 c62 -44
127 -121 161 -192 51 -109 67 -214 60 -410 -14 -385 -131 -617 -373 -742 -165
-86 -253 -101 -799 -143 -220 -16 -419 -32 -442 -36 l-43 -5 0 976 0 975 -27
-5 c-16 -4 -38 -8 -50 -11 l-23 -4 0 273 0 273 393 77 c335 65 473 89 642 110
69 9 258 6 307 -4z m-1950 -373 c199 -43 295 -157 347 -411 37 -180 43 -316
38 -847 -4 -460 -6 -511 -24 -593 -52 -230 -132 -353 -288 -440 -241 -135
-824 -189 -1135 -104 -234 64 -326 190 -371 514 -17 123 -24 900 -9 1042 39
380 183 579 515 712 144 58 349 107 560 134 78 10 305 6 367 -7z m-8710 -170
c59 -14 189 -48 289 -76 100 -28 274 -73 388 -101 113 -27 220 -53 236 -57
l30 -8 3 -327 c1 -190 -2 -327 -7 -327 -14 0 -193 37 -368 76 l-162 37 -3 81
-3 81 -136 34 c-192 48 -230 38 -265 -71 -15 -46 -18 -108 -22 -465 -4 -450
-1 -481 54 -566 47 -72 166 -127 307 -142 l67 -7 0 89 0 89 238 -38 c130 -21
252 -41 270 -44 l32 -5 -2 -302 -3 -302 -45 2 c-341 18 -742 73 -940 128 -325
91 -445 209 -519 509 -44 179 -53 326 -48 785 5 516 17 611 98 772 90 181 220
220 511 155z m14648 -446 l0 -310 -221 0 c-130 0 -239 -5 -267 -11 -45 -11
-112 -61 -112 -83 0 -6 -26 -36 -57 -68 l-57 -58 -15 33 c-12 26 -16 101 -19
410 -2 207 0 377 5 377 4 0 28 -6 53 -14 34 -10 114 -13 325 -12 268 1 282 2
320 23 22 12 41 22 43 22 1 1 2 -138 2 -309z m-7949 197 c124 -30 196 -100
248 -242 70 -195 84 -348 78 -866 -5 -456 -13 -527 -82 -666 -86 -173 -287
-276 -624 -318 -142 -17 -1009 -67 -1023 -58 -5 2 -8 351 -8 775 l0 771 -50
-7 -50 -7 2 248 3 248 65 8 c36 4 252 33 482 63 229 30 467 59 530 64 140 11
355 4 429 -13z m-4571 -152 c160 -22 329 -61 432 -99 264 -99 369 -241 424
-576 21 -126 32 -775 15 -915 -27 -230 -114 -356 -285 -415 -135 -46 -216 -55
-496 -55 -370 1 -559 31 -745 120 -171 82 -234 178 -282 429 -15 79 -18 158
-18 581 0 546 3 573 69 711 60 125 158 197 312 229 88 19 411 13 574 -10z
m2409 -89 c196 -51 315 -169 366 -364 39 -151 39 -385 0 -501 -21 -63 -79
-137 -151 -192 l-60 -45 39 -45 c45 -51 164 -285 201 -397 23 -69 26 -93 26
-228 l0 -151 -72 -6 c-40 -4 -202 -10 -360 -13 l-288 -7 0 156 0 157 41 0 c34
0 39 3 35 18 -3 9 -14 51 -26 92 -25 92 -57 157 -90 182 -23 17 -38 18 -158
12 l-132 -7 0 -309 0 -308 -147 0 c-82 0 -212 -3 -290 -7 l-143 -6 -2 744 -3
744 -52 3 -53 3 0 240 0 239 108 1 c59 1 213 5 342 9 394 12 794 6 869 -14z
m12040 -403 c22 -34 56 -80 77 -103 37 -40 37 -41 18 -60 -19 -19 -20 -19 -74
0 -30 10 -94 22 -142 26 -49 3 -88 10 -88 13 0 4 25 31 55 61 30 30 55 59 55
64 0 11 52 68 57 63 1 -2 20 -31 42 -64z m-3809 -78 c0 -8 -7 -15 -16 -15 -14
0 -14 3 -4 15 7 8 14 15 16 15 2 0 4 -7 4 -15z m-12519 -234 c268 -64 423 -93
472 -87 l47 5 0 -139 c0 -165 25 -151 -200 -112 -206 37 -228 31 -313 -81 -27
-36 -28 -37 -57 -22 -58 30 -71 76 -77 281 -3 101 -4 184 -1 184 3 0 61 -13
129 -29z"/>
<path d="M11580 7109 c-25 -4 -60 -11 -77 -14 l-33 -6 0 -225 0 -226 43 7
c283 45 362 110 360 296 -2 133 -47 180 -173 178 -41 -1 -95 -5 -120 -10z"/>
<path d="M11655 6149 c-38 -4 -95 -12 -125 -16 l-55 -8 -3 -233 -2 -233 32 5
c18 3 73 10 121 16 218 27 303 105 301 275 -1 86 -29 157 -71 178 -39 20 -115
26 -198 16z"/>
<path d="M9636 6770 c-93 -17 -179 -53 -222 -95 -74 -71 -75 -79 -72 -652 3
-487 3 -499 24 -538 43 -79 156 -110 313 -86 143 22 219 75 249 171 15 49 17
112 17 565 0 501 0 511 -22 557 -30 66 -59 81 -157 84 -44 2 -103 -1 -130 -6z
m-86 -810 c0 -398 -1 -420 -18 -420 -41 0 -42 7 -42 432 l0 408 30 0 30 0 0
-420z"/>
<path d="M7470 6382 l-125 -17 -3 -583 -2 -583 77 7 c267 22 350 44 396 105
48 66 71 300 65 672 -4 229 -7 268 -24 312 -38 96 -142 120 -384 87z"/>
<path d="M3346 6250 c-16 -5 -39 -19 -52 -31 -47 -44 -49 -66 -49 -514 0 -476
2 -492 66 -550 59 -53 129 -70 289 -70 153 0 187 11 225 75 19 34 20 53 23
462 2 297 -1 441 -9 470 -28 105 -138 157 -344 164 -66 2 -133 -1 -149 -6z
m108 -455 c3 -9 6 -138 6 -285 l0 -269 -22 8 c-44 16 -48 40 -48 324 l0 268
29 -15 c16 -9 31 -23 35 -31z"/>
<path d="M5377 6183 c-4 -3 -7 -107 -7 -231 l0 -224 108 7 c134 8 199 20 239
45 46 28 67 103 61 224 -5 110 -25 154 -78 173 -37 13 -312 18 -323 6z"/>
</g>
</svg>
